<mxfile host="app.diagrams.net" modified="2022-05-13T17:03:24.478Z" agent="5.0 (Windows NT 10.0; Win64; x64) AppleWebKit/537.36 (KHTML, like Gecko) Chrome/101.0.4951.54 Safari/537.36" etag="46TQ5-Xlhm3FUKLP2hGt" version="18.0.3" type="github">
  <diagram id="h6pFfzqSMLli_m01dqlZ" name="Page-1">
    <mxGraphModel dx="1422" dy="906" grid="1" gridSize="10" guides="1" tooltips="1" connect="1" arrows="1" fold="1" page="1" pageScale="1" pageWidth="827" pageHeight="1169" math="0" shadow="0">
      <root>
        <mxCell id="0" />
        <mxCell id="1" parent="0" />
        <mxCell id="oPCOlYAt7QM63Fq-ngoG-1" value="«artifact»&lt;br&gt;&lt;b&gt;Jenkins container&lt;/b&gt;" style="html=1;fillColor=#d5e8d4;strokeColor=#82b366;" parent="1" vertex="1">
          <mxGeometry x="430" y="200" width="160" height="80" as="geometry" />
        </mxCell>
        <mxCell id="oPCOlYAt7QM63Fq-ngoG-2" value="localhost" style="verticalAlign=top;align=left;spacingTop=8;spacingLeft=2;spacingRight=12;shape=cube;size=10;direction=south;fontStyle=4;html=1;" parent="1" vertex="1">
          <mxGeometry x="110" y="620" width="180" height="120" as="geometry" />
        </mxCell>
        <mxCell id="oPCOlYAt7QM63Fq-ngoG-3" value="github" style="verticalAlign=top;align=left;spacingTop=8;spacingLeft=2;spacingRight=12;shape=cube;size=10;direction=south;fontStyle=4;html=1;" parent="1" vertex="1">
          <mxGeometry x="580" y="620" width="180" height="120" as="geometry" />
        </mxCell>
        <mxCell id="oPCOlYAt7QM63Fq-ngoG-15" value="«component»&lt;br&gt;&lt;b&gt;DIND&lt;/b&gt;" style="html=1;fillColor=#d5e8d4;strokeColor=#82b366;" parent="1" vertex="1">
          <mxGeometry x="380" y="390" width="160" height="80" as="geometry" />
        </mxCell>
        <mxCell id="oPCOlYAt7QM63Fq-ngoG-22" value="«component»&lt;br&gt;&lt;b&gt;git&lt;/b&gt;" style="html=1;dropTarget=0;" parent="1" vertex="1">
          <mxGeometry x="590" y="460" width="160" height="60" as="geometry" />
        </mxCell>
        <mxCell id="oPCOlYAt7QM63Fq-ngoG-23" value="" style="shape=module;jettyWidth=8;jettyHeight=4;" parent="oPCOlYAt7QM63Fq-ngoG-22" vertex="1">
          <mxGeometry x="1" width="20" height="20" relative="1" as="geometry">
            <mxPoint x="-27" y="7" as="offset" />
          </mxGeometry>
        </mxCell>
        <mxCell id="oPCOlYAt7QM63Fq-ngoG-24" value="«artifact»&lt;br&gt;&lt;b&gt;express app&lt;/b&gt;" style="html=1;dropTarget=0;" parent="1" vertex="1">
          <mxGeometry x="590" y="300" width="160" height="60" as="geometry" />
        </mxCell>
        <mxCell id="oPCOlYAt7QM63Fq-ngoG-25" value="" style="shape=module;jettyWidth=8;jettyHeight=4;" parent="oPCOlYAt7QM63Fq-ngoG-24" vertex="1">
          <mxGeometry x="1" width="20" height="20" relative="1" as="geometry">
            <mxPoint x="-27" y="7" as="offset" />
          </mxGeometry>
        </mxCell>
        <mxCell id="oPCOlYAt7QM63Fq-ngoG-26" value="«component»&lt;br&gt;&lt;b&gt;Docker&lt;/b&gt;" style="html=1;dropTarget=0;" parent="1" vertex="1">
          <mxGeometry x="100" y="460" width="160" height="60" as="geometry" />
        </mxCell>
        <mxCell id="oPCOlYAt7QM63Fq-ngoG-27" value="" style="shape=module;jettyWidth=8;jettyHeight=4;" parent="oPCOlYAt7QM63Fq-ngoG-26" vertex="1">
          <mxGeometry x="1" width="20" height="20" relative="1" as="geometry">
            <mxPoint x="-27" y="7" as="offset" />
          </mxGeometry>
        </mxCell>
        <mxCell id="oPCOlYAt7QM63Fq-ngoG-29" value="«artifact»&lt;br&gt;&lt;b&gt;node:alpine&lt;/b&gt;" style="html=1;" parent="1" vertex="1">
          <mxGeometry x="40" y="290" width="280" height="90" as="geometry" />
        </mxCell>
        <mxCell id="oPCOlYAt7QM63Fq-ngoG-30" value="«artifact»&lt;br&gt;&lt;b&gt;express_build&lt;/b&gt;" style="html=1;" parent="1" vertex="1">
          <mxGeometry x="40" y="120" width="110" height="50" as="geometry" />
        </mxCell>
        <mxCell id="oPCOlYAt7QM63Fq-ngoG-31" value="«artifact»&lt;br&gt;&lt;b&gt;express_test&lt;/b&gt;" style="html=1;" parent="1" vertex="1">
          <mxGeometry x="210" y="120" width="110" height="50" as="geometry" />
        </mxCell>
        <mxCell id="oPCOlYAt7QM63Fq-ngoG-33" value="" style="endArrow=block;endSize=16;endFill=0;html=1;rounded=0;entryX=0.445;entryY=0.92;entryDx=0;entryDy=0;entryPerimeter=0;exitX=0.175;exitY=-0.011;exitDx=0;exitDy=0;exitPerimeter=0;" parent="1" source="oPCOlYAt7QM63Fq-ngoG-29" target="oPCOlYAt7QM63Fq-ngoG-30" edge="1">
          <mxGeometry width="160" relative="1" as="geometry">
            <mxPoint x="100" y="280" as="sourcePoint" />
            <mxPoint x="490" y="460" as="targetPoint" />
          </mxGeometry>
        </mxCell>
        <mxCell id="oPCOlYAt7QM63Fq-ngoG-34" value="" style="endArrow=block;endSize=16;endFill=0;html=1;rounded=0;entryX=0.5;entryY=1;entryDx=0;entryDy=0;exitX=0.807;exitY=-0.044;exitDx=0;exitDy=0;exitPerimeter=0;" parent="1" source="oPCOlYAt7QM63Fq-ngoG-29" target="oPCOlYAt7QM63Fq-ngoG-31" edge="1">
          <mxGeometry width="160" relative="1" as="geometry">
            <mxPoint x="99" y="299.01" as="sourcePoint" />
            <mxPoint x="98.95000000000005" y="176" as="targetPoint" />
          </mxGeometry>
        </mxCell>
        <mxCell id="oPCOlYAt7QM63Fq-ngoG-35" value="&amp;lt;&amp;lt;manifest&amp;gt;&amp;gt;" style="html=1;verticalAlign=bottom;endArrow=open;dashed=1;endSize=8;rounded=0;exitX=0.138;exitY=1.038;exitDx=0;exitDy=0;entryX=1;entryY=0;entryDx=0;entryDy=0;exitPerimeter=0;" parent="1" source="oPCOlYAt7QM63Fq-ngoG-1" target="oPCOlYAt7QM63Fq-ngoG-26" edge="1">
          <mxGeometry x="-0.1638" y="1" relative="1" as="geometry">
            <mxPoint x="450" y="460" as="sourcePoint" />
            <mxPoint x="370" y="460" as="targetPoint" />
            <mxPoint as="offset" />
          </mxGeometry>
        </mxCell>
        <mxCell id="oPCOlYAt7QM63Fq-ngoG-36" value="&amp;lt;&amp;lt;manifest&amp;gt;&amp;gt;" style="html=1;verticalAlign=bottom;endArrow=open;dashed=1;endSize=8;rounded=0;exitX=0.543;exitY=1.067;exitDx=0;exitDy=0;exitPerimeter=0;" parent="1" source="oPCOlYAt7QM63Fq-ngoG-29" edge="1">
          <mxGeometry x="-0.0815" relative="1" as="geometry">
            <mxPoint x="450" y="460" as="sourcePoint" />
            <mxPoint x="192" y="460" as="targetPoint" />
            <mxPoint as="offset" />
          </mxGeometry>
        </mxCell>
        <mxCell id="oPCOlYAt7QM63Fq-ngoG-37" value="&amp;lt;&amp;lt;manifest&amp;gt;&amp;gt;" style="html=1;verticalAlign=bottom;endArrow=open;dashed=1;endSize=8;rounded=0;exitX=0.456;exitY=1.013;exitDx=0;exitDy=0;entryX=0.5;entryY=0;entryDx=0;entryDy=0;exitPerimeter=0;" parent="1" source="oPCOlYAt7QM63Fq-ngoG-1" target="oPCOlYAt7QM63Fq-ngoG-15" edge="1">
          <mxGeometry x="-0.1638" y="1" relative="1" as="geometry">
            <mxPoint x="412.0799999999999" y="383.03999999999996" as="sourcePoint" />
            <mxPoint x="270" y="470" as="targetPoint" />
            <mxPoint as="offset" />
          </mxGeometry>
        </mxCell>
        <mxCell id="oPCOlYAt7QM63Fq-ngoG-39" value="" style="endArrow=none;html=1;rounded=0;entryX=0.5;entryY=1;entryDx=0;entryDy=0;exitX=0.5;exitY=0;exitDx=0;exitDy=0;" parent="1" source="oPCOlYAt7QM63Fq-ngoG-22" target="oPCOlYAt7QM63Fq-ngoG-24" edge="1">
          <mxGeometry relative="1" as="geometry">
            <mxPoint x="400" y="600" as="sourcePoint" />
            <mxPoint x="560" y="600" as="targetPoint" />
          </mxGeometry>
        </mxCell>
        <mxCell id="oPCOlYAt7QM63Fq-ngoG-40" value="" style="endArrow=none;html=1;rounded=0;" parent="1" source="oPCOlYAt7QM63Fq-ngoG-3" edge="1">
          <mxGeometry relative="1" as="geometry">
            <mxPoint x="679.5" y="620" as="sourcePoint" />
            <mxPoint x="670" y="520" as="targetPoint" />
          </mxGeometry>
        </mxCell>
        <mxCell id="oPCOlYAt7QM63Fq-ngoG-42" value="" style="endArrow=none;html=1;rounded=0;entryX=0;entryY=0;entryDx=0;entryDy=0;exitX=0;exitY=1;exitDx=0;exitDy=0;entryPerimeter=0;" parent="1" source="oPCOlYAt7QM63Fq-ngoG-22" target="oPCOlYAt7QM63Fq-ngoG-2" edge="1">
          <mxGeometry relative="1" as="geometry">
            <mxPoint x="680" y="470" as="sourcePoint" />
            <mxPoint x="680" y="370" as="targetPoint" />
          </mxGeometry>
        </mxCell>
        <mxCell id="oPCOlYAt7QM63Fq-ngoG-43" value="" style="endArrow=none;html=1;rounded=0;entryX=0.5;entryY=1;entryDx=0;entryDy=0;exitX=0.033;exitY=0.639;exitDx=0;exitDy=0;exitPerimeter=0;" parent="1" source="oPCOlYAt7QM63Fq-ngoG-2" target="oPCOlYAt7QM63Fq-ngoG-26" edge="1">
          <mxGeometry relative="1" as="geometry">
            <mxPoint x="690" y="480" as="sourcePoint" />
            <mxPoint x="690" y="380" as="targetPoint" />
          </mxGeometry>
        </mxCell>
      </root>
    </mxGraphModel>
  </diagram>
</mxfile>
